#!OML:ASF F:\VICON\USERDATA\INSTALL\Justin_Nancy\Justin_Nancy.ASF
:FULLY-SPECIFIED
:DEGREES
1
root 12.4705 17.1754 -27.8679 -2.17759 9.22355 0.112477
lowerback 8.18791 -2.22793 -1.99422
upperback 0.922535 -2.98994 3.99711
thorax -3.31325 -1.44068 5.6133
lowerneck -18.7492 -4.12752 -10.3874
upperneck 21.2635 -3.71677 4.28376
head 10.1805 -2.06002 2.70546
rclavicle -1.20265e-014 -3.49861e-014
rhumerus -45.8613 -28.3673 -63.4463
rradius 18.9731
rwrist 24.0566
rhand -13.1506 10.1568
rfingers 7.12502
rthumb 12.948 -19.4215
lclavicle -1.20265e-014 -3.49861e-014
lhumerus -24.8203 10.862 86.2003
lradius 32.1751
lwrist -0.885512
lhand -16.8755 24.3845
lfingers 7.12502
lthumb 9.35545 54.1568
rfemur -24.0599 2.34695 24.3127
rtibia 33.7126
rfoot -3.81258 -2.76139
rtoes 1.15989
lfemur 1.7146 -5.33917 -20.6171
ltibia 55.6025
lfoot 23.9647 -19.7836
ltoes 2.40696
2
root 12.4688 17.2158 -27.6276 -2.21713 8.96691 -0.519387
lowerback 8.0477 -2.05761 -1.55899
upperback 0.254884 -2.70998 3.98943
thorax -3.98212 -1.28158 5.34665
lowerneck -15.1731 -4.19448 -10.1676
upperneck 20.73 -4.26118 4.23486
head 9.36504 -2.33222 2.60936
rclavicle 1.15792e-014 -1.43125e-014
rhumerus -47.0831 -27.4704 -63.566
rradius 19.3347
rwrist 23.3017
rhand -12.8989 9.00356
rfingers 7.12502
rthumb 13.1906 -20.5592
lclavicle 1.15792e-014 -1.43125e-014
lhumerus -26.5619 9.51858 86.1286
lradius 32.2239
lwrist -0.79015
lhand -16.5716 23.4545
lfingers 7.12502
lthumb 9.64872 53.2135
rfemur -22.8329 2.79062 25.2034
rtibia 33.0389
rfoot -4.50853 -3.08865
rtoes 2.64546
lfemur -0.570902 -4.65522 -19.5609
ltibia 58.3512
lfoot 18.4765 -19.6116
ltoes -5.28639
3
root 12.4727 17.2552 -27.3893 -2.2985 8.6969 -0.968275
lowerback 7.96521 -1.92526 -1.22656
upperback 0.0448074 -2.49426 4.07713
thorax -4.18746 -1.17228 5.23089
lowerneck -13.8444 -3.87981 -10.0202
upperneck 19.6773 -4.04688 4.51207
head 8.73997 -2.19079 2.71651
rclavicle 2.03506e-014 6.36111e-015
rhumerus -47.1536 -27.5158 -63.3805
rradius 19.2064
rwrist 23.771
rhand -13.0436 9.30732
rfingers 7.12502
rthumb 13.0512 -20.2644
lclavicle 2.03506e-014 6.36111e-015
lhumerus -27.2034 9.3762 86.0684
lradius 30.8425
lwrist -2.63175
lhand -18.4951 22.7989
lfingers 7.12502
lthumb 7.79253 52.6353
rfemur -21.6041 2.97147 25.8969
rtibia 32.5486
rfoot -5.17386 -3.14608
rtoes 3.9322
lfemur -2.74887 -3.88296 -18.815
ltibia 60.5548
lfoot 14.7887 -19.0354
ltoes -11.3028
4
root 12.4795 17.2884 -27.153 -2.32407 8.32085 -1.16407
lowerback 8.01431 -1.75569 -1.05322
upperback 0.0206648 -2.25005 4.08661
thorax -4.27041 -1.05214 5.11906
lowerneck -14.0056 -3.84104 -9.92337
upperneck 19.8323 -4.03531 4.66327
head 8.82103 -2.16287 2.75368
rclavicle 2.59414e-014 -1.11319e-014
rhumerus -46.5677 -27.9663 -63.3604
rradius 18.9441
rwrist 24.716
rhand -13.2373 9.92297
rfingers 7.12502
rthumb 12.8644 -19.6606
lclavicle 2.59414e-014 -1.11319e-014
lhumerus -27.3641 9.69868 85.9183
lradius 29.8081
lwrist -3.6476
lhand -18.618 22.4817
lfingers 7.12502
lthumb 7.67386 52.3224
rfemur -20.4663 3.15357 26.305
rtibia 32.1509
rfoot -5.81818 -2.98744
rtoes 3.75898
lfemur -4.73485 -3.07601 -18.3763
ltibia 62.4866
lfoot 11.3171 -17.9366
ltoes -14.2602
5
root 12.4881 17.318 -26.9187 -2.28701 8.07332 -1.37733
lowerback 8.02365 -1.62048 -0.784986
upperback -0.00731629 -2.04461 4.05748
thorax -4.3347 -0.954197 4.91428
lowerneck -14.4415 -3.94014 -9.83295
upperneck 20.6412 -4.1758 4.69867
head 9.18934 -2.224 2.73575
rclavicle 5.01931e-015 -3.02153e-014
rhumerus -45.8969 -27.8135 -63.9345
rradius 19.0068
rwrist 25.0325
rhand -13.6114 10.6775
rfingers 7.12502
rthumb 12.5038 -18.9284
lclavicle 5.01931e-015 -3.02153e-014
lhumerus -27.5801 10.4337 85.4865
lradius 28.974
lwrist -4.13422
lhand -17.4025 19.5124
lfingers 7.12502
lthumb 8.84694 49.307
rfemur -19.5055 3.24947 26.7151
rtibia 31.943
rfoot -6.54953 -2.88489
rtoes 3.3782
lfemur -6.58092 -2.48705 -17.9321
ltibia 64.081
lfoot 8.85167 -16.4454
ltoes -16.1369
